<?xml version="1.0" encoding="UTF-8"?>
<!DOCTYPE svg PUBLIC "-//W3C//DTD SVG 1.1//EN" "http://www.w3.org/Graphics/SVG/1.1/DTD/svg11.dtd">
<!-- Creator: CorelDRAW X7 -->
<svg xmlns="http://www.w3.org/2000/svg" xml:space="preserve" width="737px" height="777px" version="1.1" style="shape-rendering:geometricPrecision; text-rendering:geometricPrecision; image-rendering:optimizeQuality; fill-rule:evenodd; clip-rule:evenodd"
viewBox="0 0 737 777"
 xmlns:xlink="http://www.w3.org/1999/xlink">
 <defs>
  <style type="text/css">
   <![CDATA[
    .fil0 {fill:black}
    .fil1 {fill:black;fill-rule:nonzero}
   ]]>
  </style>
 </defs>
 <g id="Слой_x0020_1">
  <metadata id="CorelCorpID_0Corel-Layer"/>
  <g id="_2336996622576">
   <g>
    <path class="fil0" d="M689 16c0,-4 -2,-9 -5,-12 -3,-3 -7,-4 -11,-4 -1,0 -1,0 -1,0l-92 0c-8,0 -15,7 -15,15 0,8 7,15 15,15l57 0 -151 150 -56 -56c-3,-3 -7,-5 -11,-5 -4,0 -8,2 -11,5l-273 273c-6,6 -6,16 0,22 3,2 7,4 11,4 4,0 8,-2 11,-4l262 -263 57 57c6,6 15,6 21,0l161 -161 0 51c0,8 7,15 15,15 9,0 16,-7 16,-15l0 -86c0,-1 0,-1 0,-1z"/>
   </g>
   <g>
    <circle class="fil0" cx="95" cy="461" r="15"/>
   </g>
   <path class="fil1" d="M15 777c-8,0 -15,-7 -15,-15 0,-8 7,-15 15,-15l707 0c8,0 15,7 15,15 0,8 -7,15 -15,15l-707 0z"/>
   <path class="fil1" d="M561 756c0,8 -7,15 -15,15 -9,0 -15,-7 -15,-15l0 -486c0,-13 5,-25 14,-34 9,-9 21,-14 34,-14l63 0c13,0 25,5 34,14 9,9 14,21 14,34l0 486c0,8 -6,15 -15,15 -8,0 -15,-7 -15,-15l0 -486c0,-5 -2,-10 -5,-13 -3,-3 -8,-5 -13,-5l-63 0c-5,0 -10,2 -13,5 -3,3 -5,8 -5,13l0 486z"/>
   <path class="fil1" d="M320 762c0,8 -7,15 -15,15 -9,0 -15,-7 -15,-15l0 -272c0,-13 5,-25 14,-34 9,-9 21,-14 34,-14l63 0c13,0 25,5 34,14 9,9 14,21 14,34l0 272c0,8 -7,15 -15,15 -8,0 -15,-7 -15,-15l0 -272c0,-5 -2,-10 -5,-13 -3,-3 -8,-5 -13,-5l-63 0c-5,0 -10,2 -13,5 -3,3 -5,8 -5,13l0 272z"/>
   <path class="fil1" d="M79 762c0,8 -6,15 -15,15 -8,0 -15,-7 -15,-15l0 -141c0,-14 6,-26 14,-34 9,-9 21,-14 35,-14l63 0c13,0 25,5 34,14 8,8 14,20 14,34l0 141c0,8 -7,15 -15,15 -8,0 -15,-7 -15,-15l0 -141c0,-5 -2,-10 -5,-13 -4,-3 -8,-5 -13,-5l-63 0c-5,0 -10,2 -13,5 -4,3 -6,8 -6,13l0 141z"/>
  </g>
 </g>
</svg>
