<?xml version="1.0" encoding="UTF-8"?>
<!DOCTYPE svg PUBLIC "-//W3C//DTD SVG 1.1//EN" "http://www.w3.org/Graphics/SVG/1.1/DTD/svg11.dtd">
<!-- Creator: CorelDRAW X7 -->
<svg xmlns="http://www.w3.org/2000/svg" xml:space="preserve" width="469px" height="533px" version="1.1" style="shape-rendering:geometricPrecision; text-rendering:geometricPrecision; image-rendering:optimizeQuality; fill-rule:evenodd; clip-rule:evenodd"
viewBox="0 0 469 533"
 xmlns:xlink="http://www.w3.org/1999/xlink">
 <defs>
  <style type="text/css">
   <![CDATA[
    .fil0 {fill:black;fill-rule:nonzero}
   ]]>
  </style>
 </defs>
 <g id="Слой_x0020_1">
  <metadata id="CorelCorpID_0Corel-Layer"/>
  <g id="_2336981957616">
   <path class="fil0" d="M374 56c-3,0 -6,-3 -6,-6 0,-3 3,-6 6,-6l89 0c3,0 6,3 6,6l0 346c0,3 -3,6 -6,6l-34 0 -34 0c-4,0 -7,-3 -7,-6 0,-4 3,-6 7,-6l34 0 27 0 0 -334 -82 0z"/>
   <path class="fil0" d="M256 56c-3,0 -6,-3 -6,-6 0,-3 3,-6 6,-6l81 0c3,0 6,3 6,6 0,3 -3,6 -6,6l-81 0z"/>
   <path class="fil0" d="M142 56c-3,0 -6,-3 -6,-6 0,-3 3,-6 6,-6l81 0c3,0 6,3 6,6 0,3 -3,6 -6,6l-81 0z"/>
   <path class="fil0" d="M75 390c3,0 6,2 6,6 0,3 -3,6 -6,6l-69 0c-3,0 -6,-3 -6,-6l0 -346c0,-3 3,-6 6,-6l103 0c4,0 6,3 6,6 0,3 -2,6 -6,6l-96 0 0 334 62 0z"/>
   <path class="fil0" d="M6 144c-3,0 -6,-3 -6,-7 0,-3 3,-6 6,-6l452 0c4,0 7,3 7,6 0,4 -3,7 -7,7l-452 0z"/>
   <path class="fil0" d="M376 368c0,38 -16,73 -41,99 -26,25 -61,41 -100,41 -38,0 -73,-16 -99,-41 -25,-26 -41,-61 -41,-99 0,-39 16,-74 41,-100 26,-25 61,-41 99,-41 39,0 74,16 100,41 25,26 41,61 41,100zm-50 90c23,-23 37,-55 37,-90 0,-36 -14,-68 -37,-91 -23,-23 -55,-37 -91,-37 -35,0 -67,14 -90,37 -23,23 -37,55 -37,91 0,35 14,67 37,90 23,23 55,38 90,38 36,0 68,-15 91,-38z"/>
   <path class="fil0" d="M230 260c0,-3 3,-6 6,-6 4,0 7,3 7,6l0 107 81 61c2,2 3,6 1,9 -2,3 -6,3 -9,1l-83 -62c-2,-2 -3,-4 -3,-6l0 -110z"/>
   <path class="fil0" d="M401 368c0,45 -19,87 -49,117 -30,30 -71,48 -117,48 -45,0 -87,-18 -117,-48 -29,-30 -48,-72 -48,-117 0,-46 19,-87 48,-117 30,-30 72,-49 117,-49 46,0 87,19 117,49 30,30 49,71 49,117zm-57 108c27,-28 44,-66 44,-108 0,-43 -17,-81 -44,-109 -28,-27 -66,-44 -109,-44 -42,0 -80,17 -108,44 -27,28 -44,66 -44,109 0,42 17,80 44,108 28,27 66,45 108,45 43,0 81,-18 109,-45z"/>
   <path class="fil0" d="M133 75c0,-3 3,-6 7,-6 3,0 6,3 6,6 0,5 -2,10 -6,14l0 0c-3,3 -8,5 -13,5 -4,0 -7,-2 -7,-6 0,-3 3,-6 7,-6 1,0 3,-1 4,-2l0 0 0 0c2,-1 2,-3 2,-5z"/>
   <path class="fil0" d="M127 82c3,0 6,3 6,6 0,4 -3,6 -6,6 -6,0 -11,-2 -14,-5 0,0 0,-1 -1,-1 -3,-3 -5,-8 -5,-13 0,-3 3,-6 6,-6 4,0 7,3 7,6 0,2 0,3 1,5l1 0c1,1 3,2 5,2z"/>
   <path class="fil0" d="M120 75c0,3 -3,6 -7,6 -3,0 -6,-3 -6,-6l0 -56c0,-3 3,-6 6,-6 4,0 7,3 7,6l0 56z"/>
   <path class="fil0" d="M120 19c0,4 -3,7 -7,7 -3,0 -6,-3 -6,-7 0,-5 2,-10 6,-13l0 0c3,-4 8,-6 14,-6 3,0 6,3 6,6 0,4 -3,6 -6,6 -2,0 -4,1 -5,3l0 0 0 0c-2,1 -2,2 -2,4z"/>
   <path class="fil0" d="M127 12c-4,0 -7,-2 -7,-6 0,-3 3,-6 7,-6 5,0 10,2 13,6 0,0 1,0 1,0 3,4 5,8 5,13 0,4 -3,7 -6,7 -4,0 -7,-3 -7,-7 0,-1 0,-3 -1,-4l-1 0c-1,-2 -3,-3 -4,-3z"/>
   <path class="fil0" d="M133 19c0,-3 3,-6 7,-6 3,0 6,3 6,6l0 56c0,3 -3,6 -6,6 -4,0 -7,-3 -7,-6l0 -56z"/>
   <path class="fil0" d="M247 75c0,-3 3,-6 7,-6 3,0 6,3 6,6 0,5 -2,10 -6,14l0 0c-3,3 -8,5 -14,5 -3,0 -6,-2 -6,-6 0,-3 3,-6 6,-6 2,0 4,-1 5,-2l0 0 0 0c2,-1 2,-3 2,-5z"/>
   <path class="fil0" d="M240 82c4,0 7,3 7,6 0,4 -3,6 -7,6 -5,0 -10,-2 -13,-5 0,0 -1,-1 -1,-1 -3,-3 -5,-8 -5,-13 0,-3 3,-6 6,-6 4,0 6,3 6,6 0,2 1,3 2,5l0 0c2,1 3,2 5,2z"/>
   <path class="fil0" d="M233 75c0,3 -2,6 -6,6 -3,0 -6,-3 -6,-6l0 -56c0,-3 3,-6 6,-6 4,0 6,3 6,6l0 56z"/>
   <path class="fil0" d="M233 19c0,4 -2,7 -6,7 -3,0 -6,-3 -6,-7 0,-5 2,-10 6,-13l0 0c3,-4 8,-6 13,-6 4,0 7,3 7,6 0,4 -3,6 -7,6 -2,0 -3,1 -5,3l0 0 0 0c-1,1 -2,2 -2,4z"/>
   <path class="fil0" d="M240 12c-3,0 -6,-2 -6,-6 0,-3 3,-6 6,-6 6,0 11,2 14,6 0,0 0,0 1,0 3,4 5,8 5,13 0,4 -3,7 -6,7 -4,0 -7,-3 -7,-7 0,-1 0,-3 -1,-4l-1 0c-1,-2 -3,-3 -5,-3z"/>
   <path class="fil0" d="M247 19c0,-3 3,-6 7,-6 3,0 6,3 6,6l0 56c0,3 -3,6 -6,6 -4,0 -7,-3 -7,-6l0 -56z"/>
   <path class="fil0" d="M361 75c0,-3 3,-6 6,-6 4,0 7,3 7,6 0,5 -2,10 -6,14l0 0c-3,3 -8,5 -14,5 -3,0 -6,-2 -6,-6 0,-3 3,-6 6,-6 2,0 4,-1 5,-2l0 0 0 0c1,-1 2,-3 2,-5z"/>
   <path class="fil0" d="M354 82c4,0 7,3 7,6 0,4 -3,6 -7,6 -5,0 -10,-2 -13,-5 -1,0 -1,-1 -1,-1 -3,-3 -5,-8 -5,-13 0,-3 3,-6 6,-6 4,0 6,3 6,6 0,2 1,3 2,5l0 0c2,1 3,2 5,2z"/>
   <path class="fil0" d="M347 75c0,3 -2,6 -6,6 -3,0 -6,-3 -6,-6l0 -56c0,-3 3,-6 6,-6 4,0 6,3 6,6l0 56z"/>
   <path class="fil0" d="M347 19c0,4 -2,7 -6,7 -3,0 -6,-3 -6,-7 0,-5 2,-10 6,-13l0 0c3,-4 8,-6 13,-6 4,0 7,3 7,6 0,4 -3,6 -7,6 -2,0 -3,1 -5,3l0 0 0 0c-1,1 -2,2 -2,4z"/>
   <path class="fil0" d="M354 12c-3,0 -6,-2 -6,-6 0,-3 3,-6 6,-6 6,0 11,2 14,6 0,0 0,0 0,0 4,4 6,8 6,13 0,4 -3,7 -7,7 -3,0 -6,-3 -6,-7 0,-1 0,-3 -2,-4l0 0c-1,-2 -3,-3 -5,-3z"/>
   <path class="fil0" d="M361 19c0,-3 3,-6 6,-6 4,0 7,3 7,6l0 56c0,3 -3,6 -7,6 -3,0 -6,-3 -6,-6l0 -56z"/>
  </g>
 </g>
</svg>
