<?xml version="1.0" encoding="utf-8"?>
<!-- Generator: Adobe Illustrator 17.0.0, SVG Export Plug-In . SVG Version: 6.00 Build 0)  -->
<!DOCTYPE svg PUBLIC "-//W3C//DTD SVG 1.1//EN" "http://www.w3.org/Graphics/SVG/1.1/DTD/svg11.dtd">
<svg version="1.1" id="Слой_1" xmlns="http://www.w3.org/2000/svg" xmlns:xlink="http://www.w3.org/1999/xlink" x="0px" y="0px"
	 width="147.4px" height="56.69px" viewBox="0 0 147.4 56.69" enable-background="new 0 0 147.4 56.69" xml:space="preserve">
<g>
	<g>
		<polygon fill="#FFFFFF" points="65.335,40.675 66.044,40.675 66.044,37.294 67.759,37.294 67.759,36.722 65.335,36.722 		"/>
		<path fill="#FFFFFF" d="M71.587,36.642c-0.646,0-1.119,0.277-1.406,0.758h-0.016l-0.041-0.678h-0.637
			c0.018,0.377,0.033,0.785,0.033,1.291v4.279h0.711v-2.148h0.016c0.236,0.393,0.693,0.621,1.217,0.621
			c0.932,0,1.805-0.701,1.805-2.123C73.269,37.451,72.55,36.642,71.587,36.642z M71.343,40.201c-0.516,0-0.949-0.344-1.08-0.84
			c-0.023-0.09-0.031-0.188-0.031-0.295v-0.684c0-0.092,0.023-0.199,0.047-0.287c0.133-0.541,0.598-0.883,1.088-0.883
			c0.76,0,1.176,0.678,1.176,1.463C72.542,39.58,72.101,40.201,71.343,40.201z"/>
		<path fill="#FFFFFF" d="M76.96,39.042c-0.098,0.285-0.18,0.588-0.252,0.824H76.69c-0.064-0.236-0.164-0.547-0.26-0.809
			l-0.857-2.336h-0.785l1.453,3.643c0.041,0.09,0.059,0.148,0.059,0.189c0,0.039-0.025,0.098-0.059,0.17
			c-0.17,0.367-0.408,0.647-0.604,0.801c-0.213,0.18-0.451,0.295-0.629,0.354l0.178,0.594c0.182-0.033,0.524-0.156,0.885-0.457
			c0.49-0.434,0.84-1.119,1.355-2.475l1.076-2.818h-0.76L76.96,39.042z"/>
		<polygon fill="#FFFFFF" points="80.278,40.675 80.997,40.675 80.997,37.285 82.835,37.285 82.835,40.675 83.554,40.675 
			83.554,36.722 80.278,36.722 		"/>
		<polygon fill="#FFFFFF" points="85.923,40.675 86.64,40.675 86.64,37.285 88.477,37.285 88.477,40.675 89.198,40.675 
			89.198,36.722 85.923,36.722 		"/>
		<path fill="#FFFFFF" d="M94.366,38.25c0-0.783-0.293-1.607-1.504-1.607c-0.496,0-0.979,0.139-1.305,0.342l0.162,0.482
			c0.279-0.188,0.662-0.295,1.037-0.295c0.809-0.006,0.9,0.59,0.9,0.908v0.082c-1.527-0.01-2.379,0.514-2.379,1.469
			c0,0.57,0.41,1.135,1.209,1.135c0.564,0,0.988-0.277,1.209-0.588h0.025l0.057,0.498h0.645c-0.039-0.27-0.057-0.604-0.057-0.947
			V38.25z M93.671,39.343c0,0.066-0.006,0.148-0.031,0.23c-0.113,0.336-0.449,0.66-0.971,0.66c-0.359,0-0.67-0.211-0.67-0.686
			c0-0.768,0.889-0.906,1.672-0.889V39.343z"/>
		<path fill="#FFFFFF" d="M101.442,38.505l1.715-1.783h-0.873l-1.479,1.717h-0.172v-1.717h-0.711v3.953h0.711v-1.738h0.139
			c0.662,0,1.029,0.293,1.299,0.93c0.131,0.328,0.262,0.637,0.367,0.809h0.752c-0.18-0.316-0.311-0.701-0.416-0.963
			C102.464,39.001,102.079,38.578,101.442,38.505z"/>
		<path fill="#FFFFFF" d="M106.575,36.642c-1.086,0-1.961,0.775-1.961,2.09c0,1.25,0.834,2.033,1.895,2.033
			c0.949,0,1.969-0.637,1.969-2.1C108.477,37.466,107.71,36.642,106.575,36.642z M106.542,40.228c-0.701,0-1.191-0.654-1.191-1.521
			c0-0.742,0.367-1.525,1.209-1.525c0.85,0,1.184,0.838,1.184,1.51C107.743,39.58,107.227,40.228,106.542,40.228z"/>
		<path fill="#FFFFFF" d="M113.624,36.722l-0.629,1.725c-0.164,0.434-0.385,1.053-0.475,1.354h-0.016
			c-0.09-0.309-0.254-0.791-0.359-1.086l-0.711-1.992h-0.881l-0.303,3.953h0.66l0.107-1.871c0.025-0.432,0.041-0.955,0.059-1.42
			h0.031c0.098,0.367,0.27,0.939,0.4,1.307l0.701,1.961h0.516l0.76-1.992c0.221-0.615,0.334-0.924,0.441-1.283h0.023
			c0.016,0.48,0.049,0.98,0.066,1.414l0.088,1.885h0.688l-0.279-3.953H113.624z"/>
		<polygon fill="#FFFFFF" points="116.923,40.675 117.642,40.675 117.642,37.285 119.479,37.285 119.479,40.675 120.198,40.675 
			120.198,36.722 116.923,36.722 		"/>
		<path fill="#FFFFFF" d="M125.366,38.25c0-0.783-0.293-1.607-1.502-1.607c-0.498,0-0.979,0.139-1.307,0.342l0.164,0.482
			c0.277-0.188,0.662-0.295,1.037-0.295c0.809-0.006,0.898,0.59,0.898,0.908v0.082c-1.527-0.01-2.377,0.514-2.377,1.469
			c0,0.57,0.408,1.135,1.209,1.135c0.563,0,0.988-0.277,1.209-0.588h0.023l0.059,0.498h0.643c-0.039-0.27-0.057-0.604-0.057-0.947
			V38.25z M124.675,39.343c0,0.066-0.01,0.148-0.035,0.23c-0.113,0.336-0.447,0.66-0.971,0.66c-0.359,0-0.67-0.211-0.67-0.686
			c0-0.768,0.891-0.906,1.676-0.889V39.343z"/>
		<polygon fill="#FFFFFF" points="130.317,38.316 128.446,38.316 128.446,36.722 127.727,36.722 127.727,40.675 128.446,40.675 
			128.446,38.888 130.317,38.888 130.317,40.675 131.036,40.675 131.036,36.722 130.317,36.722 		"/>
		<path fill="#FFFFFF" d="M134.72,38.765c-0.271,0.457-0.402,0.734-0.646,1.217l-0.025-0.008c0.033-0.564,0.051-0.965,0.051-1.586
			v-1.666h-0.686v3.953h0.832c0.416-0.693,0.857-1.453,1.232-2.066c0.236-0.4,0.4-0.719,0.662-1.232h0.016
			c-0.031,0.643-0.049,0.98-0.049,1.625v1.674h0.686v-3.953h-0.84L134.72,38.765z"/>
		<path fill="#FFFFFF" d="M140.468,38.765c-0.27,0.457-0.4,0.734-0.645,1.217l-0.025-0.008c0.033-0.564,0.049-0.965,0.049-1.586
			v-1.666h-0.686v3.953h0.834c0.416-0.693,0.857-1.453,1.232-2.066c0.236-0.4,0.4-0.719,0.662-1.232h0.016
			c-0.033,0.643-0.049,0.98-0.049,1.625v1.674h0.686v-3.953h-0.84L140.468,38.765z"/>
		<path fill="#FFFFFF" d="M140.835,35.734c-0.326,0-0.498-0.268-0.522-0.621h-0.523c0.033,0.557,0.311,1.016,1.029,1.016
			c0.629,0,1.045-0.354,1.086-1.016h-0.514C141.351,35.466,141.186,35.734,140.835,35.734z"/>
	</g>
	<g>
		<circle fill="#FFFFFF" cx="61.932" cy="22.161" r="1.108"/>
		<path fill="#FFFFFF" d="M145.947,21.053c-0.613,0-1.109,0.497-1.109,1.108c0,0.61,0.496,1.108,1.109,1.108
			c0.609,0,1.105-0.497,1.105-1.108C147.053,21.55,146.557,21.053,145.947,21.053z"/>
	</g>
	<g>
		<path fill="#FFFFFF" d="M88.023,14.396c-4.662,0-8.178,3.567-8.178,8.297c0,4.618,3.236,7.721,8.057,7.721
			c4.525,0,7.938-3.578,7.938-8.322C95.84,18.263,93.422,14.396,88.023,14.396z M87.902,28.573c-2.977,0-5.137-2.533-5.137-6.024
			c0-3.102,1.707-6.241,4.969-6.241c4.469,0,5.137,3.955,5.137,6.313C92.871,25.579,91.164,28.573,87.902,28.573z"/>
		<path fill="#FFFFFF" d="M119.592,30.171c4.525,0,7.938-3.579,7.938-8.322c0-3.83-2.418-7.696-7.818-7.696
			c-4.66,0-8.176,3.567-8.176,8.298C111.535,27.068,114.771,30.171,119.592,30.171z M119.424,16.063
			c4.469,0,5.135,3.956,5.135,6.314c0,2.958-1.705,5.952-4.967,5.952c-2.977,0-5.137-2.533-5.137-6.024
			C114.455,19.203,116.162,16.063,119.424,16.063z"/>
		<path fill="#FFFFFF" d="M140.623,31.067c0.051,0.12,0.187,0.52,0.309,0.851h1.295c0,0-0.064-3.198-0.098-3.487
			c-0.285,0.016-0.85,0.062-1.092-0.487c-3.156-8-5.227-13.509-5.422-13.791h-1.385c0,0-0.211,0.631-0.279,0.834
			c-1,2.932-3.918,11.473-5.115,12.814c-0.363,0.463-1.094,0.615-1.346,0.632c0,0.535-0.098,3.485-0.098,3.485h1.451
			c-0.006-0.249,0.127-0.805,0.166-0.929c0.195-0.609,0.932-1.131,1.703-1.131h8.242C139.853,29.858,140.352,30.426,140.623,31.067z
			 M131.566,27.923c0.471-1.392,2.293-6.274,3.205-8.679c0.973,2.566,2.773,7.439,3.131,8.679H131.566z"/>
		<path fill="#FFFFFF" d="M78.314,27.869c-0.23-0.295-2.77-4.466-3.977-6.544c1.16-1.911,3.164-5.065,3.318-5.269
			c0.033-0.027,0.061-0.06,0.088-0.092c0.402-0.463,1.057-0.401,1.27-0.421v-1.235h-4.4v0.75c0.258,0.032,0.746,0.276,0.404,0.814
			c0,0-1.133,2.031-1.939,3.439c-0.652-1.175-1.721-3.189-1.984-3.737c-0.135-0.376,0.352-0.544,0.473-0.516v-0.75h-4.781v1.23
			c0.594,0.039,1.223,0.378,1.418,0.728c0.246,0.303,2.189,3.529,3.342,5.501c-1.234,1.959-3.646,5.461-4.146,6.167
			c-0.506,0.663-1.428,0.663-1.748,0.708v1.279c0.127,0.01,5.221,0.008,5.221,0.008l0.016-0.807
			c-0.223-0.108-1.033-0.17-0.672-0.864c0.252-0.427,1.797-3.052,2.582-4.388c0.209,0.377,0.477,0.849,0.758,1.35
			c0.727,1.29,1.416,2.56,1.66,3.013c0.189,0.44,0.021,0.775-0.572,0.9v0.802c0.361-0.006,4.965,0,5.254,0v-1.289
			c0,0-0.273-0.004-0.644-0.125C79.082,28.467,78.609,28.338,78.314,27.869z"/>
		<path fill="#FFFFFF" d="M100.697,29.104c0,0-0.867-0.141-0.67-1.129c0-0.004,0.002-0.006,0.002-0.009
			c0.141-0.44,2.398-6.253,3.412-8.838c1.082,2.838,3.238,8.615,3.316,9.161c0.063,0.567-0.715,0.814-0.715,0.814v0.802h5.353
			v-1.289c-0.373-0.024-1.227-0.08-1.756-1.165c-1.095-2.631-5.232-13.286-5.242-13.3h-1.324c-0.01,0.01-5.483,13.095-5.754,13.626
			c-0.129,0.249-0.623,0.839-1.4,0.851v1.277h4.793L100.697,29.104z"/>
	</g>
	<g>
		<linearGradient id="SVGID_1_" gradientUnits="userSpaceOnUse" x1="0.875" y1="28.3125" x2="57.4922" y2="28.3125">
			<stop  offset="0" style="stop-color:#CED5EE"/>
			<stop  offset="0.2093" style="stop-color:#D1D8EF"/>
			<stop  offset="0.3586" style="stop-color:#D9DEF2"/>
			<stop  offset="0.4892" style="stop-color:#E7EAF7"/>
			<stop  offset="0.6084" style="stop-color:#FAFBFD"/>
			<stop  offset="0.6364" style="stop-color:#FFFFFF"/>
			<stop  offset="0.7049" style="stop-color:#E7E8EE"/>
			<stop  offset="0.8421" style="stop-color:#ABB0C2"/>
			<stop  offset="0.9879" style="stop-color:#6E758E"/>
		</linearGradient>
		<circle fill="url(#SVGID_1_)" cx="29.184" cy="28.31" r="28.309"/>
		<path fill="#333E48" d="M50.354,20.974c1.155-2.002-1.661-3.982-2.725-1.279c-1.099,2.791-3.73,4.268-5.387,4.356
			C43.783,24.472,48.333,24.476,50.354,20.974z"/>
		<path fill="#333E48" d="M24.19,27.444c-0.028-0.129-0.34-1.529-0.506-2.248c1.004,0.338,2.998,0.277,4.02-0.512
			c-1.127,0.141-2.19-0.285-3.107-0.928c-1.389-0.973-2.703-4.221-3.23-5.109c-1.01-1.697-2.545-3.121-4.613-3.189
			c-4.414-0.148-4.49,3.613-2.664,5.285c0.83,0.76,2.615,1.053,3.438,0.42c-0.902-0.734-0.561-1.982,0.473-2.211
			c0.814-0.182,1.918,0.328,1.947,1.869c0.053,2.693-3.42,3.803-5.928,2.275c-3.418-2.09-4.041-6.006-1.707-8.928
			c1.301-1.629,4.561-2.732,6.645-0.613c-0.223-1.691,0.658-3.246,2.168-3.957c-1.178,2.826,0.092,6.902,0.742,7.516
			c-0.434-1.037-0.479-2.17-0.426-3.252c0.07-1.086,0.301-2.158,0.723-3.094c0.625-1.387,1.631-2.098,3.15-2.154
			c1.465-0.055,2.893,0.92,3.174,2.418c-0.688-0.975-1.846-1.074-2.729-0.907c-0.928,0.176-1.75,0.778-2.228,1.528
			c-2.096,3.277-0.584,11.062,4.563,11.254c-4.682-1.525-4.133-7.826-1.951-9.938c0.185,0.106,0.387,0.383,0.602,0.779
			c-1.57,1.846-1.51,5.111,0.332,5.721c-0.275-0.438-0.785-2.516,0.629-3.408c0.84,2.375,1.725,5.588,2.434,7.816
			c-0.49,1.26-0.457,3.035,0.914,4.108c-0.289-0.938-0.543-2.309,0.111-2.816c1.314-1.232,6.6-1.211,8.727-1.9
			c1.945-0.631,3.65-2.19,4.123-3.815c0.822-2.832-2.832-4.191-4.168-1.83c-0.314-0.689-0.355-1.648-0.055-2.311
			c0.891-1.959,3.814-1.514,4.732-0.59c-0.396-0.996-1.586-1.514-2.676-1.508c-1.094,0.002-2.301,0.338-3.145,1.338
			c-0.807,1.076-0.986,2.342-0.773,3.607c0.086,0.453,0.244,0.916,0.502,1.359c-3.16-1.48-3.227-6.494,0.025-7.598
			c-3.346-0.496-5.881,2.32-5.258,5.838c0.518,2.932,4.088,4.191,7.111,3.326c-1.033,0.713-2.787,0.994-4.02,0.925
			c-3.457-0.192-5.93-3.053-6.27-6.046c-0.85-7.502,8.828-7.976,12.738-6.762c-1.975-1.402-4.197-2.525-6.635-3.279
			C25.376,2.591,14.05,7.382,8.755,16.813c-1.082,1.86-0.887,4.306-0.238,5.532c1.502,2.836,5.004,3.316,7.348,2.678
			c-2.682,1.946-7.508,1.207-9.691-1.173c-0.279,1.438-0.438,2.92-0.438,4.44c0,1.561,0.16,3.084,0.453,4.559
			c0.783-1.121,2.096-2.059,4.08-2.676c2.651-0.825,7.674,0.078,10.94-0.109C23.371,29.94,24.637,29.44,24.19,27.444z"/>
		<path fill="#333E48" d="M29.185,55.36c14.912,0,27.045-12.133,27.045-27.047c0-14.914-12.133-27.049-27.045-27.049
			c-14.914,0-27.047,12.135-27.047,27.049C2.138,43.228,14.27,55.36,29.185,55.36z M29.185,3.265
			c13.811,0,25.045,11.236,25.045,25.049c0,13.811-11.234,25.047-25.045,25.047c-13.812,0-25.047-11.236-25.047-25.047
			C4.138,14.501,15.372,3.265,29.185,3.265z"/>
		<path fill="#333E48" d="M8.015,35.646c-1.155,2.002,1.661,3.982,2.725,1.279c1.099-2.791,3.73-4.268,5.387-4.355
			C14.586,32.147,10.036,32.144,8.015,35.646z"/>
		<path fill="#333E48" d="M34.179,29.175c0.028,0.129,0.34,1.529,0.506,2.248c-1.004-0.338-2.998-0.277-4.02,0.512
			c1.127-0.141,2.189,0.285,3.107,0.928c1.389,0.973,2.703,4.221,3.23,5.109c1.01,1.697,2.545,3.121,4.613,3.189
			c4.414,0.149,4.49-3.613,2.664-5.285c-0.83-0.76-2.615-1.053-3.438-0.42c0.902,0.734,0.561,1.982-0.473,2.211
			c-0.814,0.182-1.918-0.328-1.947-1.869c-0.053-2.693,3.42-3.803,5.928-2.275c3.418,2.09,4.041,6.006,1.707,8.928
			c-1.301,1.629-4.561,2.732-6.645,0.613c0.223,1.691-0.658,3.246-2.168,3.957c1.178-2.826-0.092-6.902-0.742-7.516
			c0.434,1.037,0.479,2.17,0.426,3.252c-0.07,1.086-0.301,2.158-0.723,3.094c-0.625,1.387-1.631,2.098-3.15,2.154
			c-1.465,0.055-2.893-0.92-3.174-2.418c0.688,0.975,1.846,1.074,2.729,0.907c0.928-0.176,1.75-0.778,2.229-1.528
			c2.096-3.277,0.584-11.063-4.563-11.254c4.682,1.525,4.133,7.826,1.951,9.938c-0.185-0.105-0.387-0.383-0.601-0.779
			c1.57-1.846,1.51-5.111-0.332-5.721c0.275,0.438,0.785,2.516-0.629,3.408c-0.84-2.375-1.725-5.588-2.434-7.816
			c0.49-1.26,0.457-3.035-0.914-4.107c0.289,0.938,0.543,2.309-0.111,2.816c-1.314,1.232-6.6,1.211-8.727,1.9
			c-1.945,0.631-3.65,2.189-4.123,3.814c-0.822,2.832,2.832,4.191,4.168,1.83c0.315,0.689,0.356,1.648,0.055,2.311
			c-0.891,1.959-3.814,1.514-4.732,0.59c0.396,0.996,1.586,1.514,2.676,1.508c1.094-0.002,2.301-0.338,3.145-1.338
			c0.807-1.076,0.986-2.342,0.773-3.607c-0.086-0.453-0.244-0.916-0.502-1.359c3.16,1.481,3.227,6.494-0.025,7.598
			c3.346,0.496,5.881-2.32,5.258-5.838c-0.518-2.932-4.088-4.191-7.111-3.326c1.033-0.713,2.787-0.994,4.02-0.925
			c3.457,0.192,5.93,3.053,6.269,6.046c0.85,7.502-8.828,7.976-12.738,6.762c1.975,1.402,4.197,2.525,6.635,3.279
			c10.748,3.334,22.074-1.457,27.369-10.888c1.082-1.86,0.887-4.306,0.238-5.532c-1.502-2.836-5.004-3.316-7.348-2.678
			c2.682-1.946,7.508-1.207,9.691,1.173c0.279-1.439,0.438-2.92,0.438-4.44c0-1.561-0.16-3.084-0.453-4.559
			c-0.783,1.121-2.096,2.059-4.08,2.676c-2.651,0.825-7.674-0.078-10.94,0.109C34.998,26.679,33.732,27.179,34.179,29.175z"/>
	</g>
</g>
</svg>
