<?xml version="1.0" encoding="utf-8"?>
<!-- Generator: Adobe Illustrator 19.0.1, SVG Export Plug-In . SVG Version: 6.00 Build 0)  -->
<svg version="1.1" id="Слой_1" xmlns="http://www.w3.org/2000/svg" xmlns:xlink="http://www.w3.org/1999/xlink" x="0px" y="0px"
	 viewBox="-33 353.4 63.6 13.9" style="enable-background:new -33 353.4 63.6 13.9;" xml:space="preserve">
<g>
	<path d="M-20,364.4c0.7-2.2,1.3-3.6,2.1-5.7c0.3-0.7,0.5-1.1,0.4-1.5c-0.1-0.7-0.6-0.9-1-0.3c-0.1,0.1-0.1,0.2-0.2,0.3
		c-0.3,0.4-0.5,0.9-0.8,1.4c-0.9,1.6-1.6,3.7-2.1,4.4c-0.6,1-1.5,0.8-1.8-0.2c-0.7,0.5-1.5,0-1.5-0.9c0-0.8,0.2-1.8,0.3-2.6
		c0.1-1,0.4-3.6,0.4-5c0-0.2,0-0.3-0.1-0.4c-0.2-0.5-0.6-0.5-1.1-0.2c-0.2,0.2-0.4,0.5-0.5,0.9c-0.2,0.6-0.2,1.3-0.3,2
		c-0.1,0.5-0.8,4.6-1,4.9c-0.5,1.1-2.5-0.8-3.9-1.2c-1.6-0.4-2.6,0.4-1.4,1.1c0.8,0.5,3.4,2.5,4,3.2c0.2,0.2,0.2,0.2,0.4,0.3
		c0.2,0.2,0.4,0.4,0.6,0.7c1.4,1.3,4,2,5.9,1c0.4-0.2,0.5-0.3,0.8-0.6C-20.3,365.4-20.2,365-20,364.4L-20,364.4z"/>
	<path id="R_1_" d="M7.4,361.3l0.6-3.1c0.9,0,2.4-0.3,1.8,1.8C9.3,361.4,8.4,361.3,7.4,361.3L7.4,361.3z M4.1,366.9h2.1l0.9-4
		c1.2-0.1,1.2,0.7,1.4,1.5l0.5,2.5H11l-0.5-2.6c-0.1-0.6-0.4-1.1-0.6-1.4c-0.1-0.1-0.3-0.2-0.4-0.3c0.3-0.2,0.6-0.3,0.9-0.5
		c0.4-0.3,0.8-0.6,1.2-1.3c0.5-0.9,0.7-2.2,0.3-3.2c-0.5-1-1.3-1.2-2.8-1.2c-1.3,0-2.6,0-4,0l-0.3,1.6h1.1L4.1,366.9z"/>
	<path id="к_1_" d="M23.8,366.9h1.9l0.7-2.9c0.8-0.1,0.9,0.4,1,1.2l0.3,1.7l1.9,0l-0.3-1.3c-0.3-1.2-0.2-1.5-0.9-2.2l2.2-3.2l-2,0
		c-0.5,0.7-0.9,1.5-1.4,2.2h-0.6c0-0.6,1-4.7,1.2-5.9h-3.1l-0.3,1.6h1.1C25.4,359.6,23.8,366.2,23.8,366.9L23.8,366.9z"/>
	<polyline points="-11.4,364.2 -13.2,364.2 -13.4,365.3 -14.8,365.3 -13,356.5 -16.3,356.6 -16.7,358.2 -15.5,358.2 -17.3,366.9 
		-12,366.9 	"/>
	<path id="о_1_" d="M13.5,364.9c-0.1-0.4-0.1-0.9,0.1-1.5c0.2-0.7,0.7-1.8,1.5-1.5c0.7,0.2,0.7,2.1,0,3.1
		C14.6,365.8,13.8,365.9,13.5,364.9L13.5,364.9z M12.9,367.1c0.2,0.1,0.4,0.1,0.6,0.1c1.7,0.2,2.6-0.5,3.1-1.2
		c0.5-0.6,0.6-1.1,0.8-1.9c0.3-1,0.4-2.2-0.2-3.1c-0.7-0.9-2.1-1.2-3.4-0.7c-1,0.4-1.8,1.3-2.2,2.5c-0.2,0.6-0.3,1.3-0.3,2
		C11.5,366,12,366.7,12.9,367.1L12.9,367.1z"/>
	<path d="M-8.8,363.5c0.1-0.7,0.5-1.5,1.1-1.7c0.5-0.1,0.7,0.3,0.6,0.7c0,0.2-0.1,0.4-0.3,0.6C-7.7,363.5-8.2,363.5-8.8,363.5
		L-8.8,363.5z M-10.4,366.6c1.1,1.3,3.3,0.4,4.3,0.1l-0.3-1.4c-0.9,0.3-2.1,0.9-2.5-0.4c1.4,0.1,2.7-0.3,3.4-1.6
		c1.8-3.1-2.6-4.2-4.5-1.7c-0.7,0.9-1,1.8-1,3C-11,364.5-11.1,365.6-10.4,366.6z"/>
	<path d="M-0.6,363.1c0.3,1.1,1.9,1.3,2.1,1.8c0.4,0.9-1.4,1.1-2.4,0.3l-0.7,1.4c0.5,0.7,2.1,0.8,3.1,0.6c1.2-0.3,1.9-1.2,2-2.4
		c0-0.5-0.1-0.8-0.6-1.3c-0.4-0.4-0.9-0.5-1.3-0.7c-0.2-0.1-0.3-0.2-0.3-0.4c0-0.5,0.4-0.5,1-0.4l-0.1,0.7l1.4,0l0.9-2.7l-1.7,0
		l-0.1,0.4c-0.8-0.1-1.8-0.1-2.5,0.4C0.4,360.7-0.9,361.7-0.6,363.1z"/>
	<path id="C_1_" d="M18.9,366.7c0.2,0.2,0.4,0.3,0.8,0.4c0.4,0.1,1,0.2,1.4,0.1c0.3,0,0.5-0.1,0.8-0.2c0.3-0.1,0.5-0.2,0.7-0.3
		c0.1-0.1,0.2-0.1,0.4-0.2l-0.3-1.4c-0.6,0.2-2.8,1.3-2.5-1.2c0.1-1.4,0.6-2.4,2.2-2.2l-0.1,0.7l1.3,0l0.9-2.7h-1.6l-0.1,0.5
		c-1.9-0.2-2.9,0.3-3.7,1.4c-0.7,0.9-1,2.1-0.9,3.4C18.2,365.7,18.4,366.3,18.9,366.7L18.9,366.7z"/>
	<polygon points="-4.9,366.9 -3,366.9 -2,361.8 -0.9,361.8 -0.4,360.2 -1.6,360.2 -1.2,358.2 -2.8,358.2 -3.4,360.2 -4.4,360.2 
		-4.7,361.8 -3.9,361.8 	"/>
	<path d="M-23.4,362c0.4-0.8,0.6-1.9,0.7-2.6c0.1-0.7-0.1-1-0.8-1.1c-0.2,0-0.4,0-0.6,0.1c-0.3,0.2-0.2,0.5-0.3,1.1
		c-0.2,1.2-0.5,2.5,0,2.9C-23.9,363-23.6,362.4-23.4,362L-23.4,362z"/>
	<path d="M-21.9,362.7c0.6-0.9,1.3-2.6,0.9-3.1c-0.3-0.4-1.1-0.7-1.4,0c-0.2,0.5-0.4,1.4-0.5,1.9c-0.2,0.5-0.4,1.2-0.2,1.6
		C-22.7,363.7-22.1,363.1-21.9,362.7L-21.9,362.7z"/>
	<polygon points="-0.5,359.3 0.8,359.3 1.8,356.5 0.1,356.5 	"/>
</g>
</svg>
